<?xml version="1.0" standalone="no"?>
<!DOCTYPE svg PUBLIC "-//W3C//DTD SVG 20010904//EN"
 "http://www.w3.org/TR/2001/REC-SVG-20010904/DTD/svg10.dtd">
<svg version="1.0" xmlns="http://www.w3.org/2000/svg"
 width="512.000000pt" height="512.000000pt" viewBox="0 0 512.000000 512.000000"
 preserveAspectRatio="xMidYMid meet">

<g transform="translate(0.000000,512.000000) scale(0.100000,-0.100000)"
fill="#000000" stroke="none">
<path d="M2855 4896 c-33 -9 -60 -26 -81 -49 -59 -64 -67 -144 -33 -347 11
-69 21 -160 21 -203 2 -87 -11 -113 -73 -155 -44 -30 -108 -26 -172 11 l-45
27 -7 80 c-4 44 -4 120 0 168 5 65 3 91 -7 103 -22 28 -53 31 -79 10 -24 -19
-24 -20 -23 -213 1 -165 4 -204 23 -268 81 -287 81 -296 -11 -206 -79 79 -111
139 -137 260 -10 48 -25 92 -32 97 -41 26 -89 -6 -89 -58 0 -52 38 -182 72
-246 21 -39 64 -92 117 -144 l84 -83 -94 0 c-104 0 -139 -12 -153 -51 -21 -62
23 -109 104 -109 22 0 40 -3 40 -6 0 -33 -94 -490 -101 -493 -22 -7 -49 -46
-49 -71 0 -14 7 -35 15 -47 14 -20 10 -53 -56 -401 -70 -368 -73 -379 -99
-394 -38 -21 -46 -61 -21 -103 l19 -33 -73 -382 c-40 -210 -77 -385 -82 -389
-24 -15 -34 -52 -24 -83 9 -25 -1 -93 -56 -384 l-67 -355 -33 -19 c-46 -27
-62 -64 -42 -98 30 -53 -1 -52 949 -52 950 0 919 -1 949 52 20 34 4 71 -42 98
l-33 19 -67 355 c-55 291 -65 359 -56 384 10 31 0 68 -24 83 -5 4 -42 179 -82
389 l-73 382 19 33 c25 42 17 82 -21 103 -26 15 -29 26 -99 394 -66 348 -70
381 -56 401 8 12 15 33 15 47 0 25 -27 64 -49 71 -7 3 -101 460 -101 493 0 3
18 6 40 6 79 0 122 43 106 105 -10 40 -53 55 -157 55 l-91 0 34 38 c47 52 90
116 126 189 31 61 66 95 129 127 64 32 130 10 172 -58 19 -30 28 -36 57 -36
27 0 37 5 45 24 16 34 6 64 -36 113 -48 56 -106 83 -181 83 -66 0 -112 -18
-189 -74 -27 -20 -53 -36 -57 -36 -10 0 -1 48 25 134 22 77 20 158 -9 321 -9
50 -17 125 -17 168 -2 72 0 80 22 98 15 13 39 19 71 19 51 0 80 20 80 56 0 53
-67 74 -155 50z m-131 -1393 c9 -30 86 -447 86 -466 0 -16 -20 -17 -250 -17
-230 0 -250 1 -250 17 0 19 77 436 86 466 5 15 22 17 164 17 142 0 159 -2 164
-17z m126 -641 c0 -13 -278 -307 -290 -307 -12 0 -290 294 -290 307 0 4 131 8
290 8 160 0 290 -4 290 -8z m-466 -240 c64 -68 116 -128 116 -133 0 -8 -47
-59 -273 -296 -67 -71 -104 -93 -93 -55 6 19 116 596 116 607 0 15 23 -6 134
-123z m486 122 c0 -10 111 -588 116 -606 11 -38 -26 -16 -93 55 -226 236 -273
288 -273 296 0 11 232 260 243 261 4 0 7 -3 7 -6z m-160 -469 l141 -150 -145
-3 c-81 -1 -211 -1 -291 0 l-146 3 143 153 c79 83 146 151 150 150 4 -2 71
-70 148 -153z m209 -312 c-1 -13 -345 -308 -358 -308 -14 0 -360 295 -360 308
-1 4 161 7 359 7 198 0 360 -3 359 -7z m-596 -212 c97 -85 177 -155 177 -156
0 -2 -84 -76 -187 -166 -104 -90 -198 -174 -211 -186 -19 -19 -34 -23 -83 -23
-56 0 -59 1 -54 23 3 12 32 166 66 342 33 176 62 328 65 338 7 21 -9 33 227
-172z m767 -166 c33 -176 62 -330 65 -342 5 -22 2 -23 -54 -23 -49 0 -64 4
-83 23 -13 12 -108 96 -211 186 -153 134 -186 167 -175 177 7 7 96 85 198 173
153 133 186 158 192 144 4 -10 35 -162 68 -338z m-343 -205 l178 -155 -182 -3
c-101 -1 -265 -1 -365 0 l-183 3 180 157 c99 87 183 157 187 155 4 -1 87 -72
185 -157z m-531 -472 c145 -89 264 -164 264 -167 0 -3 -112 -73 -248 -156
-136 -82 -269 -165 -295 -182 -37 -25 -60 -33 -94 -33 -42 0 -45 2 -40 23 7
29 127 663 127 671 0 16 41 -6 286 -156z m789 153 c-6 -5 -107 -68 -225 -140
-130 -80 -220 -129 -230 -126 -21 9 -440 266 -440 271 0 2 203 4 452 4 268 0
448 -4 443 -9z m185 3 c0 -8 120 -642 127 -671 5 -21 2 -23 -40 -23 -34 0 -57
8 -94 32 -26 18 -160 101 -295 183 -136 83 -246 153 -245 157 3 11 520 327
535 328 6 0 12 -3 12 -6z m-357 -534 l261 -160 -534 0 -534 0 214 131 c118 72
235 144 260 160 25 16 51 29 59 29 7 0 131 -72 274 -160z"/>
<path d="M3124 4512 c-98 -34 -146 -83 -126 -127 18 -39 52 -41 114 -6 34 19
78 34 117 39 64 9 81 21 81 58 0 54 -86 70 -186 36z"/>
</g>
</svg>
