<?xml version="1.0" standalone="no"?>
<!DOCTYPE svg PUBLIC "-//W3C//DTD SVG 20010904//EN"
 "http://www.w3.org/TR/2001/REC-SVG-20010904/DTD/svg10.dtd">
<svg version="1.0" xmlns="http://www.w3.org/2000/svg"
 width="610.000000pt" height="410.000000pt" viewBox="0 0 610.000000 410.000000"
 preserveAspectRatio="xMidYMid meet">

<g transform="translate(0.000000,410.000000) scale(0.100000,-0.100000)"
fill="#000000" stroke="none">
<path d="M3330 3935 l0 -165 -185 0 -185 0 0 -90 0 -90 46 0 46 0 -6 -32 c-5
-32 -86 -678 -86 -691 0 -4 -31 -7 -70 -7 l-70 0 0 -95 0 -95 55 0 c53 0 55
-1 55 -27 -1 -52 -48 -378 -49 -340 l-1 37 -235 0 -235 0 -2 248 -3 247 -72 3
-73 3 0 -251 0 -250 -105 0 -104 0 -3 -121 -3 -120 -135 87 c-102 66 -1183
762 -1756 1130 l-52 33 -50 -58 -51 -58 466 -369 c257 -203 559 -442 672 -532
113 -89 221 -176 240 -192 18 -16 36 -30 40 -32 4 -2 124 -95 266 -208 l258
-205 -61 -3 -62 -3 0 -279 0 -280 115 0 115 0 0 -275 0 -275 205 0 205 0 0
275 0 275 210 0 210 0 0 -275 0 -275 205 0 205 0 0 275 0 275 205 0 205 0 2
-272 3 -273 208 -3 207 -2 0 275 0 275 205 0 205 0 0 -275 0 -275 205 0 205 0
0 275 0 275 120 0 120 0 0 280 0 280 -50 0 -50 0 0 54 0 54 103 82 c56 44 113
90 127 101 217 174 663 525 670 527 6 2 11 -132 12 -334 l3 -337 27 -20 c25
-19 28 -19 52 -3 21 13 26 25 26 57 0 50 -23 49 -30 -2 -5 -31 -10 -35 -40
-30 -7 1 -10 121 -10 365 1 370 -2 406 -36 406 -7 0 -212 -128 -455 -285
l-444 -285 -3 40 -3 40 -310 0 -309 0 0 110 0 110 -330 0 c-181 0 -330 2 -330
4 0 2 -9 71 -20 152 -11 82 -20 155 -20 162 0 7 14 12 35 12 l35 0 0 95 0 95
-44 0 c-25 0 -47 4 -50 9 -5 8 -96 679 -96 708 0 10 19 13 75 13 l75 0 0 90 0
90 -182 2 -183 3 -3 163 -2 162 -45 0 -45 0 0 -165z m-22 -391 c21 -6 22 -10
22 -140 l0 -134 -116 0 -116 0 6 38 c3 20 11 78 16 127 6 50 13 96 15 103 5
13 129 17 173 6z m240 -11 c5 -10 15 -65 21 -123 7 -58 15 -113 17 -122 5 -16
-4 -18 -80 -18 l-86 0 0 134 c0 151 -5 141 82 145 26 1 40 -4 46 -16z m-3430
-305 c14 -33 6 -35 -28 -9 -21 17 -22 21 -10 35 15 19 21 14 38 -26z m132 -28
c60 -40 70 -50 50 -50 -14 0 -42 -3 -62 -6 -36 -6 -39 -5 -52 27 -22 54 -28
79 -19 79 4 0 42 -23 83 -50z m3080 -123 l0 -103 -58 -57 -58 -57 -82 0 c-45
0 -82 4 -82 8 0 12 29 242 35 280 l6 32 119 0 120 0 0 -103z m200 100 c0 -1
-25 -27 -55 -57 l-55 -54 0 57 0 57 55 0 c30 0 55 -1 55 -3z m104 -260 l8 -58
-109 3 -108 3 -3 34 c-3 31 4 42 90 128 l93 94 11 -73 c6 -40 15 -99 18 -131z
m-3245 136 c7 -27 14 -57 18 -67 3 -13 -22 2 -76 44 -44 34 -81 64 -81 66 0 2
29 4 64 4 l64 0 11 -47z m174 -53 c48 -30 87 -59 87 -63 0 -4 -41 -6 -92 -5
l-92 3 -12 40 c-6 22 -14 55 -17 73 -8 38 -13 40 126 -48z m139 -185 c4 -38 5
-71 3 -73 -5 -5 -171 123 -180 139 -5 6 23 9 82 7 l88 -3 7 -70z m165 -12 c65
-42 111 -78 103 -80 -8 -2 -59 -7 -112 -11 l-98 -8 -4 31 c-10 62 -16 145 -12
145 3 0 58 -35 123 -77z m151 -185 c27 -161 26 -155 6 -137 -11 9 -65 53 -122
97 l-103 81 43 5 c24 3 63 8 88 9 25 2 52 4 61 5 13 2 19 -12 27 -60z m295
-103 c16 -11 2 -14 -90 -20 -59 -3 -115 -7 -123 -8 -10 -2 -18 17 -26 68 -25
138 -31 136 104 49 64 -42 125 -82 135 -89z m1727 131 c0 -3 -4 -8 -10 -11 -5
-3 -10 -1 -10 4 0 6 5 11 10 11 6 0 10 -2 10 -4z m149 -171 l141 -110 0 -127
0 -128 -185 0 c-159 0 -185 2 -185 15 0 23 49 426 55 453 7 28 0 33 174 -103z
m141 64 l0 -61 -67 53 c-38 29 -72 56 -77 61 -6 4 25 8 67 8 l77 0 0 -61z
m359 -41 c7 -57 15 -115 18 -130 5 -26 3 -28 -31 -28 l-36 0 0 -45 c0 -25 -3
-45 -7 -45 -5 0 -53 35 -108 78 l-100 78 -3 97 -3 97 129 0 129 0 12 -102z
m2311 63 c0 -5 -7 -11 -14 -14 -10 -4 -13 -1 -9 9 6 15 23 19 23 5z m-56 -23
c-9 -31 -7 -30 -46 -26 l-33 3 35 22 c45 28 53 28 44 1z m-72 -79 c-38 -34
-46 -33 -36 5 5 21 12 26 38 26 l31 -1 -33 -30z m-67 -21 c-4 -18 -9 -34 -10
-36 -2 -2 -25 -2 -51 0 l-48 3 49 32 c28 18 54 33 58 33 5 0 5 -15 2 -32z
m-4421 -40 c11 -125 15 -208 10 -208 -2 0 -71 53 -152 117 -81 64 -149 118
-151 120 -2 2 -2 5 0 8 5 4 181 21 251 24 l36 1 6 -62z m249 -88 l120 -78 -89
-20 c-144 -33 -213 -46 -217 -41 -3 2 -8 64 -12 137 l-7 133 43 -26 c23 -15
96 -62 162 -105z m4127 63 c-1 -5 -20 -22 -43 -40 l-42 -32 -3 25 c-6 43 4 54
48 54 22 0 40 -3 40 -7z m-110 -35 c0 -53 -9 -59 -71 -51 l-54 8 60 38 c33 20
61 37 62 37 2 0 3 -15 3 -32z m-2106 -138 c47 -36 85 -71 86 -77 0 -10 -27
-13 -105 -13 l-105 0 0 91 c0 105 -16 106 124 -1z m2053 60 c22 0 18 -6 -32
-46 -31 -25 -59 -44 -62 -41 -3 4 -2 27 2 53 6 45 7 46 37 40 17 -3 42 -6 55
-6z m-112 -17 c-16 -78 -11 -73 -71 -73 -32 0 -54 4 -52 10 4 13 99 79 115 79
6 1 10 -7 8 -16z m-3713 -135 c-2 -46 -7 -111 -10 -145 l-7 -61 -140 111 c-81
65 -134 113 -125 115 8 1 71 16 140 32 69 15 130 29 135 29 6 1 9 -30 7 -81z
m177 0 c87 -55 100 -67 101 -90 0 -16 -2 -28 -5 -28 -2 0 -54 -14 -115 -30
-61 -17 -113 -30 -115 -30 -7 0 -6 83 2 174 4 58 9 76 19 72 8 -3 59 -34 113
-68z m3498 36 c19 -5 13 -13 -52 -65 -41 -32 -77 -59 -80 -59 -7 0 -6 80 1
108 6 19 13 22 58 22 28 0 61 -3 73 -6z m-164 -135 c-4 -4 -42 0 -83 10 l-75
17 80 52 80 52 3 -61 c2 -34 -1 -65 -5 -70z m-1953 -32 l0 -42 -202 -78 c-110
-42 -203 -75 -206 -72 -5 5 17 215 25 228 2 4 89 7 194 7 l189 0 0 -43z m155
18 c-63 -30 -65 -30 -65 0 0 24 3 25 58 24 l57 -1 -50 -23z m1738 -6 c20 -5
37 -11 37 -14 0 -6 -131 -108 -134 -104 -2 2 -7 35 -11 73 l-7 69 39 -7 c21
-4 55 -12 76 -17z m-136 -81 c-2 -18 -4 -4 -4 32 0 36 2 50 4 33 2 -18 2 -48
0 -65z m-1449 -55 l-3 -98 -108 -3 -108 -3 3 63 3 63 95 37 c52 20 101 37 108
37 10 1 12 -22 10 -96z m-1588 -15 c0 -104 -6 -148 -20 -148 -10 0 -224 169
-228 179 -3 8 196 68 231 70 15 1 17 -10 17 -101z m1233 -86 c-29 -2 -79 -2
-110 0 l-58 3 105 41 105 40 5 -40 5 -41 -52 -3z"/>
<path d="M1347 494 c-4 -4 -7 -24 -7 -44 0 -37 0 -37 50 -44 31 -4 87 -26 145
-56 174 -92 279 -91 464 2 101 51 108 53 186 53 78 0 84 -2 195 -58 96 -48
127 -58 185 -63 92 -8 172 12 284 73 83 46 89 48 171 48 84 0 87 -1 200 -58
96 -48 127 -58 185 -63 92 -8 169 12 282 73 85 47 90 48 173 48 90 0 80 3 238
-79 126 -66 257 -58 414 23 150 79 244 79 376 2 96 -55 134 -66 237 -65 101 1
145 14 236 70 35 21 83 40 119 46 l60 12 0 43 c0 38 -3 43 -23 43 -48 0 -140
-32 -224 -77 -86 -47 -90 -48 -173 -48 -83 1 -87 2 -185 53 -123 65 -202 82
-301 65 -37 -7 -87 -22 -113 -35 -25 -14 -71 -37 -101 -53 -47 -25 -66 -29
-136 -30 -78 0 -84 2 -186 53 -173 87 -297 93 -432 21 -138 -74 -137 -74 -222
-74 -77 0 -84 2 -185 52 -190 96 -278 97 -459 6 -112 -56 -117 -58 -197 -58
-79 0 -85 2 -180 52 -184 95 -282 97 -463 6 -112 -56 -117 -58 -196 -58 -78 0
-84 2 -195 57 -108 54 -203 81 -222 62z"/>
<path d="M1307 213 c-4 -3 -7 -23 -7 -44 0 -36 2 -38 38 -44 62 -11 103 -26
161 -60 86 -51 160 -69 255 -62 72 5 91 11 193 63 109 54 116 57 193 57 76 1
84 -1 182 -51 129 -64 178 -76 276 -69 68 5 90 13 190 63 108 54 116 57 192
57 76 1 84 -1 182 -51 129 -64 178 -76 276 -69 67 5 90 13 189 63 108 55 115
57 192 57 79 1 83 -1 198 -59 l117 -59 106 0 107 0 116 59 c112 57 119 59 196
59 78 1 82 -1 197 -59 l117 -59 107 0 107 0 114 58 c63 31 123 57 134 57 53 0
65 10 65 57 l0 44 -37 -6 c-21 -4 -51 -9 -68 -12 -16 -3 -74 -28 -129 -57 -97
-50 -101 -51 -186 -51 -86 0 -89 1 -187 52 -178 93 -288 93 -465 0 -98 -51
-101 -52 -187 -52 -87 0 -90 1 -188 52 -178 93 -280 93 -462 1 -102 -52 -107
-53 -190 -53 -67 0 -95 4 -126 21 -22 11 -67 34 -100 52 -135 70 -261 64 -420
-20 -99 -52 -101 -53 -190 -53 -81 0 -97 3 -145 29 -125 67 -149 77 -211 87
-101 16 -175 0 -294 -63 -99 -52 -101 -53 -190 -53 -88 0 -92 1 -175 46 -47
25 -101 51 -120 57 -49 15 -116 23 -123 15z"/>
</g>
</svg>
